<svg id="video-file_893495" xmlns="http://www.w3.org/2000/svg" width="36.384" height="48.51" viewBox="0 0 36.384 48.51">
  <path id="Trazado_9181" data-name="Trazado 9181" d="M99.383,0H77.15a1.011,1.011,0,0,0-1.011,1.011V12.132H65.023a1.011,1.011,0,0,0-1.011,1.011V47.5a1.011,1.011,0,0,0,1.011,1.011H99.383a1.011,1.011,0,0,0,1.011-1.011V1.016A1.011,1.011,0,0,0,99.383,0Z" transform="translate(-64.01 -0.004)" fill="#f5f5f5"/>
  <path id="Trazado_9182" data-name="Trazado 9182" d="M77.518.077a1.011,1.011,0,0,0-1.1.218L64.289,12.422A1.011,1.011,0,0,0,65,14.149H77.132a1.011,1.011,0,0,0,1.011-1.011V1.011A1.011,1.011,0,0,0,77.518.077Z" transform="translate(-63.992 0)" fill="#b0bec5"/>
  <path id="Trazado_9184" data-name="Trazado 9184" d="M99.383,48.513H65.023A1.011,1.011,0,0,1,64.012,47.5V13.142a1.01,1.01,0,0,1,.3-.716L76.434.3A1.011,1.011,0,0,1,77.15,0H99.383a1.011,1.011,0,0,1,1.011,1.011V47.5A1.011,1.011,0,0,1,99.383,48.513Zm-33.35-2.021H98.373V2.025h-20.8L66.033,13.56Z" transform="translate(-64.01 -0.004)"/>
  <path id="Trazado_9185" data-name="Trazado 9185" d="M77.15,14.153H65.023a1.011,1.011,0,1,1,0-2.021H76.139V1.015a1.011,1.011,0,0,1,2.021,0V13.142A1.011,1.011,0,0,1,77.15,14.153Z" transform="translate(-64.01 -0.004)"/>
  <g id="Grupo_9143" data-name="Grupo 9143" transform="translate(5.883 20.319)" opacity="0.9">
    <path id="Trazado_9143" data-name="Trazado 9143" d="M230.063,355.4H220.45a6.737,6.737,0,0,1,0-13.473h12.508a4.807,4.807,0,1,1,0,9.613H220.45a2.886,2.886,0,1,1,0-5.772h9.622a.965.965,0,1,1,0,1.93H220.45a.965.965,0,0,0,0,1.93h12.508a2.886,2.886,0,0,0,0-5.772H220.45a4.807,4.807,0,1,0,0,9.613h9.622a.965.965,0,1,1-.009,1.93Z" transform="translate(-213.334 -341.547)" fill="#0065bd"/>
    <path id="Trazado_9143_-_Contorno" data-name="Trazado 9143 - Contorno" d="M226.442,352.157h-9.613a7.116,7.116,0,1,1,0-14.231h12.508a5.186,5.186,0,0,1,0,10.371H216.829a3.265,3.265,0,0,1,0-6.53h9.622a1.344,1.344,0,1,1,0,2.688h-9.622a.586.586,0,1,0,0,1.172h12.508a2.507,2.507,0,1,0,0-5.014H216.829a4.428,4.428,0,0,0,0,8.855h9.622a1.344,1.344,0,1,1-.009,2.688Zm-9.613-13.473a6.358,6.358,0,0,0,0,12.715h9.613a.594.594,0,0,0,.6-.592.585.585,0,0,0-.586-.58h-9.622a5.186,5.186,0,1,1,0-10.371h12.508a3.265,3.265,0,1,1,0,6.53H216.829a1.344,1.344,0,0,1,0-2.688h9.622a.586.586,0,1,0,0-1.172h-9.622a2.507,2.507,0,0,0,0,5.014h12.508a4.428,4.428,0,0,0,0-8.855Z" transform="translate(-209.713 -337.926)" fill="none"/>
  </g>
</svg>
