<svg id="video-file_893495" xmlns="http://www.w3.org/2000/svg" width="36.384" height="48.51" viewBox="0 0 36.384 48.51">
  <path id="Trazado_9181" data-name="Trazado 9181" d="M99.383,0H77.15a1.011,1.011,0,0,0-1.011,1.011V12.132H65.023a1.011,1.011,0,0,0-1.011,1.011V47.5a1.011,1.011,0,0,0,1.011,1.011H99.383a1.011,1.011,0,0,0,1.011-1.011V1.016A1.011,1.011,0,0,0,99.383,0Z" transform="translate(-64.01 -0.004)" fill="#f5f5f5"/>
  <path id="Trazado_9182" data-name="Trazado 9182" d="M77.518.077a1.011,1.011,0,0,0-1.1.218L64.289,12.422A1.011,1.011,0,0,0,65,14.149H77.132a1.011,1.011,0,0,0,1.011-1.011V1.011A1.011,1.011,0,0,0,77.518.077Z" transform="translate(-63.992 0)" fill="#b0bec5"/>
  <path id="Trazado_9183" data-name="Trazado 9183" d="M205.71,200.263l-12.127-8.085a1.011,1.011,0,0,0-1.57.841v16.17a1.011,1.011,0,0,0,.534.889,1,1,0,0,0,.477.121,1.011,1.011,0,0,0,.56-.17l12.127-8.085a1.011,1.011,0,0,0,0-1.682Z" transform="translate(-179.883 -173.817)" fill="#f44336"/>
  <path id="Trazado_9184" data-name="Trazado 9184" d="M99.383,48.513H65.023A1.011,1.011,0,0,1,64.012,47.5V13.142a1.01,1.01,0,0,1,.3-.716L76.434.3A1.011,1.011,0,0,1,77.15,0H99.383a1.011,1.011,0,0,1,1.011,1.011V47.5A1.011,1.011,0,0,1,99.383,48.513Zm-33.35-2.021H98.373V2.025h-20.8L66.033,13.56Z" transform="translate(-64.01 -0.004)"/>
  <path id="Trazado_9185" data-name="Trazado 9185" d="M77.15,14.153H65.023a1.011,1.011,0,1,1,0-2.021H76.139V1.015a1.011,1.011,0,0,1,2.021,0V13.142A1.011,1.011,0,0,1,77.15,14.153Z" transform="translate(-64.01 -0.004)"/>
  <path id="Trazado_9186" data-name="Trazado 9186" d="M193.023,210.2a1,1,0,0,1-.477-.121,1.011,1.011,0,0,1-.534-.889V193.02a1.011,1.011,0,0,1,1.57-.841l12.127,8.085a1.011,1.011,0,0,1,0,1.682l-12.127,8.085A1.01,1.01,0,0,1,193.023,210.2Zm1.011-15.291V207.3l9.3-6.2Z" transform="translate(-179.883 -173.818)"/>
</svg>
