<svg xmlns="http://www.w3.org/2000/svg" xmlns:xlink="http://www.w3.org/1999/xlink" width="554" height="222" viewBox="0 0 554 222">
  <defs>
    <clipPath id="clip-path">
      <rect id="Rectángulo_24461" data-name="Rectángulo 24461" width="53.763" height="57.596" fill="#aacbe9" stroke="#aacbe9" stroke-width="2"/>
    </clipPath>
    <clipPath id="clip-path-2">
      <rect id="Rectángulo_24462" data-name="Rectángulo 24462" width="42.032" height="42.032" fill="none"/>
    </clipPath>
    <clipPath id="clip-path-3">
      <rect id="Rectángulo_24462-2" data-name="Rectángulo 24462" width="29.747" height="29.747" fill="#7fb2de"/>
    </clipPath>
    <clipPath id="clip-felicitaciones-no-tenes-alertas-pendientes">
      <rect width="554" height="222"/>
    </clipPath>
  </defs>
  <g id="felicitaciones-no-tenes-alertas-pendientes" clip-path="url(#clip-felicitaciones-no-tenes-alertas-pendientes)">
    <g id="Grupo_13526" data-name="Grupo 13526" transform="translate(-339.428 -269.27)">
      <text id="_Felicitaciones_No_tenés_alertas_pendientes." data-name="¡Felicitaciones!
No tenés alertas pendientes." transform="translate(627.5 379.27)" fill="#1f1f1f" font-size="24" font-family="SegoeUI-Semibold, Segoe UI" font-weight="600"><tspan x="0" y="0">¡Felicitaciones!</tspan><tspan font-size="20" font-family="SegoeUI, Segoe UI" font-weight="400"><tspan x="0" y="28">No tenés alertas pendientes.</tspan></tspan></text>
      <g id="Grupo_13512" data-name="Grupo 13512" transform="translate(59 -165.73)">
        <g id="empty" transform="translate(532.113 485.566) rotate(99)">
          <path id="Trazado_42" data-name="Trazado 42" d="M155.636,114.48c-8.118-33.017-7.556-52.056-26.828-88.159S69.987-2.764,47.492,12.094-12,86.459,3.822,147.778c21.332,66.9,97.732,78.789,135.853,46.994C158.869,178.765,159.82,142.838,155.636,114.48Z" transform="translate(0 0)" fill="#fff"/>
        </g>
        <g id="Grupo_13497" data-name="Grupo 13497" transform="translate(361.117 506.775)">
          <path id="Trazado_9110" data-name="Trazado 9110" d="M105.331,89.543H18.856a.313.313,0,0,1-.313-.313V8.351a6.226,6.226,0,0,1,6.225-6.226H48.314a5.52,5.52,0,0,1,5.52,5.521v5.9h58.7a.706.706,0,0,1,.705.707V81.641A7.9,7.9,0,0,1,105.331,89.543Z" transform="translate(-3.317 -2.125)" fill="#fff" stroke="#ddd" stroke-miterlimit="10" stroke-width="5"/>
          <path id="Trazado_9111" data-name="Trazado 9111" d="M102.686,90.519H9.8a7.669,7.669,0,0,1-7.67-7.669V22.578a.262.262,0,0,1,.262-.262H94.811a.262.262,0,0,1,.262.262V81.891c0,7.677,7.613,8.629,7.613,8.629" transform="translate(-2.126 -3.283)" fill="#fff"/>
          <path id="Trazado_9113" data-name="Trazado 9113" d="M102.686,90.519H9.8a7.669,7.669,0,0,1-7.67-7.669V22.578a.262.262,0,0,1,.262-.262H94.811a.262.262,0,0,1,.262.262V81.891C95.073,89.568,102.686,90.519,102.686,90.519Z" transform="translate(-2.126 -3.283)" fill="none" stroke="#ddd" stroke-miterlimit="10" stroke-width="5"/>
        </g>
        <path id="Trazado_9106" data-name="Trazado 9106" d="M105.331,89.543H18.856a.313.313,0,0,1-.313-.313V8.351a6.226,6.226,0,0,1,6.225-6.226H48.314a5.52,5.52,0,0,1,5.52,5.521v5.9h58.7a.706.706,0,0,1,.705.707V81.641A7.9,7.9,0,0,1,105.331,89.543Z" transform="translate(353.043 502.564)" fill="#fff" stroke="#2a7ec8" stroke-miterlimit="10" stroke-width="5"/>
        <path id="Trazado_9107" data-name="Trazado 9107" d="M102.686,90.519H9.8a7.669,7.669,0,0,1-7.67-7.669V22.578a.262.262,0,0,1,.262-.262H94.811a.262.262,0,0,1,.262.262V81.891c0,7.677,7.613,8.629,7.613,8.629" transform="translate(353.836 501.589)" fill="#aacbe9"/>
        <path id="Trazado_9109" data-name="Trazado 9109" d="M95.217,66.752,3.987,40.106V23.774H95.217Z" transform="translate(353.35 501.519)" fill="#d3e6f8"/>
        <path id="Trazado_305" data-name="Trazado 305" d="M687.69,243.757a5.825,5.825,0,1,0,5.825,5.824A5.825,5.825,0,0,0,687.69,243.757Zm0,8.975a3.151,3.151,0,1,1,3.151-3.151A3.151,3.151,0,0,1,687.69,252.732Z" transform="translate(-342.295 249.283)" fill="#5598d3"/>
        <path id="Trazado_9108" data-name="Trazado 9108" d="M102.686,90.519H9.8a7.669,7.669,0,0,1-7.67-7.669V22.578a.262.262,0,0,1,.262-.262H94.811a.262.262,0,0,1,.262.262V81.891C95.073,89.568,102.686,90.519,102.686,90.519Z" transform="translate(353.836 501.589)" fill="none" stroke="#2a7ec8" stroke-miterlimit="10" stroke-width="5"/>
        <g id="empty-2" data-name="empty" transform="translate(549.641 481.722) rotate(99)">
          <path id="Trazado_42-2" data-name="Trazado 42" d="M172.644,126.991c-9.005-36.625-8.382-57.745-29.759-97.793s-65.25-32.264-90.2-15.783-66,82.493-48.442,150.513c23.663,74.209,108.413,87.4,150.7,52.13C176.231,198.3,177.286,158.448,172.644,126.991Z" transform="translate(0 0)" fill="none" stroke="#fff" stroke-width="3"/>
        </g>
        <path id="Trazado_9117" data-name="Trazado 9117" d="M689.725,243.757a7.86,7.86,0,1,0,7.86,7.86A7.86,7.86,0,0,0,689.725,243.757Zm0,12.112a4.252,4.252,0,1,1,4.252-4.252A4.252,4.252,0,0,1,689.725,255.869Z" transform="translate(-171.277 245.212)" fill="#aacbe9"/>
        <g id="Grupo_13500" data-name="Grupo 13500" transform="translate(483.688 538.629) rotate(13)">
          <g id="Grupo_13499" data-name="Grupo 13499" transform="translate(0 0)" clip-path="url(#clip-path)">
            <path id="Trazado_9125" data-name="Trazado 9125" d="M53.553,29.92a1.791,1.791,0,0,0-1.145-.845c-2.5-.172-24-2.524-22.276-27.56a1.418,1.418,0,0,0-2.83-.194C25.581,26.357,3.969,25.746,1.574,25.582a1.24,1.24,0,0,0-.893.266,1.629,1.629,0,0,0-.466.406,1.619,1.619,0,0,0-.1,1.415,1.515,1.515,0,0,0,1.254.852l.109.007c2.5.172,23.887,2.517,22.167,27.553a1.418,1.418,0,0,0,2.83.194C28.192,31.348,49.7,31.842,52.206,32.014a1.664,1.664,0,0,0,1.359-.672,1.342,1.342,0,0,0-.012-1.422M25.688,45.5C23.242,34.945,15.82,29.951,9.859,27.573c6.23-1.541,14.266-5.473,18.133-15.6,2.446,10.557,9.868,15.551,15.829,17.93-6.23,1.541-14.266,5.473-18.133,15.6" transform="translate(0 0)" fill="#aacbe9" stroke="#aacbe9" stroke-width="2"/>
          </g>
        </g>
        <g id="Grupo_13502" data-name="Grupo 13502" transform="translate(290.428 529.468)">
          <g id="Grupo_13501" data-name="Grupo 13501" transform="translate(0 0)" clip-path="url(#clip-path-2)">
            <path id="Trazado_9126" data-name="Trazado 9126" d="M14.03,0c1.8,0,3.261,9.409,3.261,21.016S15.831,42.032,14.03,42.032s-3.261-9.409-3.261-21.016S12.23,0,14.03,0" transform="translate(6.986 -0.001)" fill="#a1d6f6"/>
            <path id="Trazado_9127" data-name="Trazado 9127" d="M21.016,10.769c11.607,0,21.016,1.461,21.016,3.261s-9.409,3.261-21.016,3.261S0,15.831,0,14.03s9.409-3.261,21.016-3.261" transform="translate(0 6.985)" fill="#a1d6f6"/>
          </g>
        </g>
        <g id="Grupo_13503" data-name="Grupo 13503" transform="translate(422.691 475.489) rotate(-11)">
          <g id="Grupo_13501-2" data-name="Grupo 13501" transform="translate(0 0)" clip-path="url(#clip-path-3)">
            <path id="Trazado_9126-2" data-name="Trazado 9126" d="M13.077,0c1.274,0,2.308,6.659,2.308,14.873s-1.034,14.873-2.308,14.873-2.308-6.659-2.308-14.873S11.8,0,13.077,0" transform="translate(1.796 0)" fill="#7fb2de"/>
            <path id="Trazado_9127-2" data-name="Trazado 9127" d="M14.873,10.769c8.214,0,14.873,1.034,14.873,2.308s-6.659,2.308-14.873,2.308S0,14.351,0,13.077s6.659-2.308,14.873-2.308" transform="translate(0 1.796)" fill="#7fb2de"/>
          </g>
        </g>
        <g id="Elipse_2617" data-name="Elipse 2617" transform="translate(387 566)" fill="#004887" stroke="#004887" stroke-width="1">
          <circle cx="2" cy="2" r="2" stroke="none"/>
          <circle cx="2" cy="2" r="1.5" fill="none"/>
        </g>
        <path id="Trazado_9131" data-name="Trazado 9131" d="M-22692.537,14121.1l10.451-13.639h5.99l1.02,13.639h9.178l4.971,5.99-6.119,19.246h-21.156l-4.334-3.059Z" transform="translate(23090 -13569)" fill="#fff"/>
        <path id="Trazado_9128" data-name="Trazado 9128" d="M21.428,43.814a6.507,6.507,0,0,1-4.946-2.337l-.008-.01-.7-.821a4.733,4.733,0,0,1-3.836,1.961H-4.083a4.741,4.741,0,0,1-4.735-4.735V18.427a4.741,4.741,0,0,1,4.735-4.733H11.945a4.69,4.69,0,0,1,2.578.767l-.018-.011L22.724,2.716A6.358,6.358,0,0,1,27.833-.071h.081a6.317,6.317,0,0,1,5.106,2.59l.012.018A7.4,7.4,0,0,1,34.5,6.978c0,.009,0,.017,0,.026h0v7.481h6.193a6.569,6.569,0,0,1,5.59,3.211l.017.03.866,1.416a7.482,7.482,0,0,1,1.089,3.909,7.57,7.57,0,0,1-.264,1.988L48,24.985,44.425,38.6a6.806,6.806,0,0,1-6.432,5.215h-.009Zm-1.979-4.874a2.621,2.621,0,0,0,1.976.965H37.981a2.9,2.9,0,0,0,2.656-2.278l0-.019,3.578-13.622a3.565,3.565,0,0,0,.123-.94,3.634,3.634,0,0,0-.523-1.885l.009.016-.866-1.416A2.7,2.7,0,0,0,40.7,18.39H32.542a1.956,1.956,0,0,1-1.956-1.956V7c0-.009,0-.02,0-.031a3.5,3.5,0,0,0-.69-2.094l.007.01a2.433,2.433,0,0,0-2-1.043h0A2.456,2.456,0,0,0,25.93,4.952l-.006.009L16.667,18.174v17.5ZM-4.907,18.427V37.872a.824.824,0,0,0,.824.824H11.942a.824.824,0,0,0,.824-.824V18.427a.824.824,0,0,0-.824-.824H-4.09A.812.812,0,0,0-4.907,18.427Z" transform="translate(382.295 535.838)" fill="#004887" stroke="#004887" stroke-width="1"/>
      </g>
    </g>
  </g>
</svg>
