<svg xmlns="http://www.w3.org/2000/svg" xmlns:xlink="http://www.w3.org/1999/xlink" width="162" height="129" viewBox="0 0 162 129">
  <defs>
    <clipPath id="clip-icono_para_subir_contenidos">
      <rect width="162" height="129"/>
    </clipPath>
  </defs>
  <g id="icono_para_subir_contenidos" data-name="icono para subir contenidos" clip-path="url(#clip-icono_para_subir_contenidos)">
    <g id="Grupo_13530" data-name="Grupo 13530" transform="translate(-462 -1255)">
      <g id="Grupo_12946" data-name="Grupo 12946" transform="translate(-99.35 244.637)">
        <g id="empty" transform="translate(692.641 1018.021) rotate(99)">
          <path id="Trazado_42" data-name="Trazado 42" d="M111.667,59.238c-4.587-18.657-2.92-34.037-8.809-47.878S89.53-26.788,48.3.142,19.438,68.2,25.88,78.054C56.031,124.212,118.663,106.647,111.667,59.238Z" transform="translate(0 0)" fill="#f7f7f7"/>
        </g>
        <g id="Grupo_12943" data-name="Grupo 12943" transform="translate(595.609 1052.629)">
          <path id="Trazado_9012" data-name="Trazado 9012" d="M69.8-96.823a16.35,16.35,0,0,1,4.937,2.244,17.076,17.076,0,0,1,3.89,3.612,16.085,16.085,0,0,1,2.543,4.659,16.185,16.185,0,0,1,.9,5.386,15.95,15.95,0,0,1-1.282,6.39,16.611,16.611,0,0,1-3.526,5.215,16.544,16.544,0,0,1-5.236,3.526,16,16,0,0,1-6.369,1.282H49.241V-69.98H65.655a10.649,10.649,0,0,0,4.253-.855,11.051,11.051,0,0,0,3.484-2.351,11.052,11.052,0,0,0,2.351-3.484,10.649,10.649,0,0,0,.855-4.253,10.785,10.785,0,0,0-.876-4.36,10.451,10.451,0,0,0-2.415-3.462,11.448,11.448,0,0,0-3.59-2.287,11.472,11.472,0,0,0-4.36-.834,19.046,19.046,0,0,0-2.18-6.518,19.382,19.382,0,0,0-4.168-5.215,18.838,18.838,0,0,0-5.706-3.441,18.679,18.679,0,0,0-6.8-1.24,18.358,18.358,0,0,0-6.262,1.069,19.7,19.7,0,0,0-5.407,2.949,19.08,19.08,0,0,0-4.21,4.531,18.82,18.82,0,0,0-2.586,5.77,14.072,14.072,0,0,0-4.146-2.5,13.038,13.038,0,0,0-4.745-.876,13.4,13.4,0,0,0-5.322,1.069,13.727,13.727,0,0,0-4.36,2.928A13.727,13.727,0,0,0,6.54-88.98a13.4,13.4,0,0,0-1.069,5.322A13.4,13.4,0,0,0,6.54-78.337a13.727,13.727,0,0,0,2.928,4.36,13.727,13.727,0,0,0,4.36,2.928,13.4,13.4,0,0,0,5.322,1.069H32.827v5.471H19.149a18.473,18.473,0,0,1-7.459-1.517,19.508,19.508,0,0,1-6.07-4.1,19.508,19.508,0,0,1-4.1-6.07A18.473,18.473,0,0,1,0-83.658a18.473,18.473,0,0,1,1.517-7.459,19.508,19.508,0,0,1,4.1-6.07,19.508,19.508,0,0,1,6.07-4.1,18.473,18.473,0,0,1,7.459-1.517,19.28,19.28,0,0,1,6.283,1.069,24.563,24.563,0,0,1,3.954-5,25.1,25.1,0,0,1,5-3.783,24.335,24.335,0,0,1,5.792-2.394,24.092,24.092,0,0,1,6.326-.834,23.591,23.591,0,0,1,7.63,1.24,24.968,24.968,0,0,1,6.732,3.484,25.194,25.194,0,0,1,5.386,5.343A23.949,23.949,0,0,1,69.8-96.823Z" transform="translate(4.714 114.028)" fill="#ddd"/>
          <path id="Trazado_9011" data-name="Trazado 9011" d="M43.77-82.5v28.938H38.3V-82.5l-6.283,6.241L28.168-80.11,41.034-92.976,53.9-80.11l-3.847,3.847ZM69.8-96.823a16.35,16.35,0,0,1,4.937,2.244,17.076,17.076,0,0,1,3.89,3.612,16.085,16.085,0,0,1,2.543,4.659,16.185,16.185,0,0,1,.9,5.386,15.95,15.95,0,0,1-1.282,6.39,16.611,16.611,0,0,1-3.526,5.215,16.544,16.544,0,0,1-5.236,3.526,16,16,0,0,1-6.369,1.282H49.241V-69.98H65.655a10.649,10.649,0,0,0,4.253-.855,11.051,11.051,0,0,0,3.484-2.351,11.052,11.052,0,0,0,2.351-3.484,10.649,10.649,0,0,0,.855-4.253,10.785,10.785,0,0,0-.876-4.36,10.451,10.451,0,0,0-2.415-3.462,11.448,11.448,0,0,0-3.59-2.287,11.472,11.472,0,0,0-4.36-.834,19.046,19.046,0,0,0-2.18-6.518,19.382,19.382,0,0,0-4.168-5.215,18.838,18.838,0,0,0-5.706-3.441,18.679,18.679,0,0,0-6.8-1.24,18.358,18.358,0,0,0-6.262,1.069,19.7,19.7,0,0,0-5.407,2.949,19.08,19.08,0,0,0-4.21,4.531,18.82,18.82,0,0,0-2.586,5.77,14.072,14.072,0,0,0-4.146-2.5,13.038,13.038,0,0,0-4.745-.876,13.4,13.4,0,0,0-5.322,1.069,13.727,13.727,0,0,0-4.36,2.928A13.727,13.727,0,0,0,6.54-88.98a13.4,13.4,0,0,0-1.069,5.322A13.4,13.4,0,0,0,6.54-78.337a13.727,13.727,0,0,0,2.928,4.36,13.727,13.727,0,0,0,4.36,2.928,13.4,13.4,0,0,0,5.322,1.069H32.827v5.471H19.149a18.473,18.473,0,0,1-7.459-1.517,19.508,19.508,0,0,1-6.07-4.1,19.508,19.508,0,0,1-4.1-6.07A18.473,18.473,0,0,1,0-83.658a18.473,18.473,0,0,1,1.517-7.459,19.508,19.508,0,0,1,4.1-6.07,19.508,19.508,0,0,1,6.07-4.1,18.473,18.473,0,0,1,7.459-1.517,19.28,19.28,0,0,1,6.283,1.069,24.563,24.563,0,0,1,3.954-5,25.1,25.1,0,0,1,5-3.783,24.335,24.335,0,0,1,5.792-2.394,24.092,24.092,0,0,1,6.326-.834,23.591,23.591,0,0,1,7.63,1.24,24.968,24.968,0,0,1,6.732,3.484,25.194,25.194,0,0,1,5.386,5.343A23.949,23.949,0,0,1,69.8-96.823Z" transform="translate(0 113.75)" fill="#999"/>
        </g>
        <path id="Trazado_305" data-name="Trazado 305" d="M690.124,243.757a8.259,8.259,0,1,0,8.259,8.259A8.259,8.259,0,0,0,690.124,243.757Zm0,12.727a4.468,4.468,0,1,1,4.467-4.468A4.468,4.468,0,0,1,690.124,256.484Z" transform="translate(-37.244 783.09)" fill="#ddd"/>
        <path id="Trazado_9013" data-name="Trazado 9013" d="M10.4,8.7l7,7-1.7,1.7-7-7-7,7L0,15.706l7-7-7-7L1.7,0l7,7,7-7,1.7,1.7Z" transform="matrix(0.966, 0.259, -0.259, 0.966, 592.714, 1032.707)" fill="#ddd" stroke="#ddd" stroke-width="3"/>
      </g>
    </g>
  </g>
</svg>
