<svg xmlns="http://www.w3.org/2000/svg" width="265.068" height="213.086" viewBox="0 0 265.068 213.086">
  <g id="Grupo_13520" transform="translate(-283.727 -507.859)">
    <g id="empty" transform="translate(529.508 550.296) rotate(99)">
      <path id="Trazado_42" d="M155.636,114.48c-8.118-33.017-7.556-52.056-26.828-88.159S69.987-2.764,47.492,12.094-12,86.459,3.822,147.778c21.332,66.9,97.732,78.789,135.853,46.994C158.869,178.765,159.82,142.838,155.636,114.48Z" transform="translate(0 0)" fill="#f5f5f5"></path>
    </g>
    <g id="Grupo_13497" transform="translate(358.512 571.505)">
      <path id="Trazado_9110" d="M105.331,89.543H18.856a.313.313,0,0,1-.313-.313V8.351a6.226,6.226,0,0,1,6.225-6.226H48.314a5.52,5.52,0,0,1,5.52,5.521v5.9h58.7a.706.706,0,0,1,.705.707V81.641A7.9,7.9,0,0,1,105.331,89.543Z" transform="translate(-3.317 -2.125)" fill="#fff" stroke="#ddd" stroke-miterlimit="10" stroke-width="5"></path>
      <path id="Trazado_9111" d="M102.686,90.519H9.8a7.669,7.669,0,0,1-7.67-7.669V22.578a.262.262,0,0,1,.262-.262H94.811a.262.262,0,0,1,.262.262V81.891c0,7.677,7.613,8.629,7.613,8.629" transform="translate(-2.126 -3.283)" fill="#fff"></path>
      <path id="Trazado_9113" d="M102.686,90.519H9.8a7.669,7.669,0,0,1-7.67-7.669V22.578a.262.262,0,0,1,.262-.262H94.811a.262.262,0,0,1,.262.262V81.891C95.073,89.568,102.686,90.519,102.686,90.519Z" transform="translate(-2.126 -3.283)" fill="none" stroke="#ddd" stroke-miterlimit="10" stroke-width="5"></path>
    </g>
    <path id="Trazado_9106" d="M105.331,89.543H18.856a.313.313,0,0,1-.313-.313V8.351a6.226,6.226,0,0,1,6.225-6.226H48.314a5.52,5.52,0,0,1,5.52,5.521v5.9h58.7a.706.706,0,0,1,.705.707V81.641A7.9,7.9,0,0,1,105.331,89.543Z" transform="translate(350.438 567.294)" fill="#fff" stroke="#5c5c5c" stroke-miterlimit="10" stroke-width="5"></path>
    <path id="Trazado_9107" d="M102.686,90.519H9.8a7.669,7.669,0,0,1-7.67-7.669V22.578a.262.262,0,0,1,.262-.262H94.811a.262.262,0,0,1,.262.262V81.891c0,7.677,7.613,8.629,7.613,8.629" transform="translate(351.23 566.318)" fill="#b8b8b8"></path>
    <path id="Trazado_9109" d="M95.217,66.752,3.987,40.106V23.774H95.217Z" transform="translate(350.744 566.248)" fill="#dcd8cb"></path>
    <path id="Trazado_305" d="M687.69,243.757a5.825,5.825,0,1,0,5.825,5.824A5.825,5.825,0,0,0,687.69,243.757Zm0,8.975a3.151,3.151,0,1,1,3.151-3.151A3.151,3.151,0,0,1,687.69,252.732Z" transform="translate(-344.9 314.013)" fill="#ccc"></path>
    <path id="Trazado_9013" d="M19.422,16.25,32.5,29.328,29.328,32.5,16.25,19.422,3.172,32.5,0,29.328,13.078,16.25,0,3.172,3.172,0,16.25,13.078,29.328,0,32.5,3.172Z" transform="matrix(0.966, 0.259, -0.259, 0.966, 492.311, 606.414)" fill="#ddd" stroke="#ddd" stroke-width="4"></path>
    <path id="Trazado_9108" d="M102.686,90.519H9.8a7.669,7.669,0,0,1-7.67-7.669V22.578a.262.262,0,0,1,.262-.262H94.811a.262.262,0,0,1,.262.262V81.891C95.073,89.568,102.686,90.519,102.686,90.519Z" transform="translate(351.23 566.318)" fill="none" stroke="#5c5c5c" stroke-miterlimit="10" stroke-width="5"></path>
    <g id="empty-2" transform="translate(547.035 546.451) rotate(99)">
      <path id="Trazado_42-2" d="M172.644,126.991c-9.005-36.625-8.382-57.745-29.759-97.793s-65.25-32.264-90.2-15.783-66,82.493-48.442,150.513c23.663,74.209,108.413,87.4,150.7,52.13C176.231,198.3,177.286,158.448,172.644,126.991Z" transform="translate(0 0)" fill="none" stroke="#f5f5f5" stroke-width="3"></path>
    </g>
    <path id="Trazado_9115" d="M25.351,21.21l17.07,17.07L38.28,42.421,21.21,25.351,4.141,42.421,0,38.28,17.07,21.21,0,4.141,4.141,0,21.21,17.07,38.28,0l4.141,4.141Z" transform="translate(287.822 615.795) rotate(-10)" fill="#d4d4d4" stroke="#d4d4d4" stroke-width="5"></path>
    <path id="Trazado_9116" d="M12.294,10.286l8.278,8.278-2.008,2.008-8.278-8.278L2.008,20.572,0,18.564l8.278-8.278L0,2.008,2.008,0l8.278,8.278L18.564,0l2.008,2.008Z" transform="matrix(0.391, 0.921, -0.921, 0.391, 442.975, 542.444)" fill="#ddd" stroke="#ddd" stroke-width="3"></path>
    <path id="Trazado_9117" d="M689.725,243.757a7.86,7.86,0,1,0,7.86,7.86A7.86,7.86,0,0,0,689.725,243.757Zm0,12.112a4.252,4.252,0,1,1,4.252-4.252A4.252,4.252,0,0,1,689.725,255.869Z" transform="translate(-173.883 309.941)" fill="#ddd"></path>
    <circle id="Elipse_2618" cx="9.5" cy="9.5" r="9.5" transform="translate(401.395 607.729)" fill="#fff"></circle>
    <g id="Grupo_13505" transform="translate(382.621 592.064) rotate(14)">
      <g id="Grupo_13506" transform="translate(21.662 6.126)">
        <g id="Grupo_13505-2">
          <path id="Trazado_9129" d="M233.2,63.526a12.231,12.231,0,1,0,0,17.305A12.25,12.25,0,0,0,233.2,63.526Zm-2.163,15.142a9.173,9.173,0,1,1,0-12.979A9.188,9.188,0,0,1,231.034,78.668Z" transform="translate(-212.313 -59.947)" fill="#3d3d3d" stroke="#3d3d3d" stroke-width="0.5"></path>
        </g>
      </g>
      <g id="Grupo_13508" transform="translate(0 0.011)">
        <g id="Grupo_13507">
          <path id="Trazado_9130" d="M46.872,5.378A18.355,18.355,0,0,0,19.878,30.209l-2.208,2.208-1.082-1.082a1.529,1.529,0,0,0-2.163,0L1.344,44.416a4.589,4.589,0,0,0,6.489,6.49L20.914,37.825a1.529,1.529,0,0,0,0-2.163L19.833,34.58l2.209-2.209A18.355,18.355,0,0,0,46.872,5.378ZM5.67,48.743A1.53,1.53,0,0,1,3.507,46.58l7.673-7.673,2.163,2.163Zm9.836-9.836-2.163-2.163,2.163-2.163,2.163,2.163Zm29.2-9.734a15.289,15.289,0,1,1,0-21.631A15.313,15.313,0,0,1,44.709,29.172Z" transform="translate(0 -0.011)" fill="#3d3d3d" stroke="#3d3d3d" stroke-width="0.5"></path>
        </g>
      </g>
    </g>
  </g>
</svg>
